<svg xmlns="http://www.w3.org/2000/svg" width="37" height="37" viewBox="-188 22 37 37"><path fill="#FFF" d="M-155.4 22h-28.2c-2.4 0-4.4 2-4.4 4.4v28.2c0 2.4 2 4.4 4.4 4.4h28.2c2.4 0 4.4-2 4.4-4.4V26.4c0-2.4-2-4.4-4.4-4.4zm-6 5.8c0-.6.5-1.2 1.2-1.2h3.5c.6 0 1.2.5 1.2 1.2v3.5c0 .6-.5 1.1-1.2 1.1h-3.5c-.6 0-1.2-.5-1.2-1.1v-3.5zm-8.1 5.7c3.9 0 7.1 3.2 7.1 7.1 0 3.9-3.2 7.1-7.1 7.1-3.9 0-7.1-3.2-7.1-7.1 0-4 3.2-7.1 7.1-7.1zm15 20.9c0 .6-.5 1.2-1.2 1.2h-27.7c-.6 0-1.2-.5-1.2-1.2V37.1h4.6c-.6 1.1-.8 2.3-.8 3.5 0 6.2 5 11.2 11.2 11.2s11.2-5 11.2-11.2c.1-1.2-.2-2.5-.9-3.5h4.6l.2 17.3z"/></svg>