<svg xmlns="http://www.w3.org/2000/svg" width="509.9" height="53" viewBox="48 14 509.9 53"><path d="M280.8 60.2l-18.7-42.3c-.8-2.2-2.9-3.7-5.2-3.7h-.4c-2.4 0-4.5 1.4-5.3 3.7l-18.7 42.3c-.3.6-.5 1.3-.6 2 0 2.3 1.7 4.1 4 4.2h.1c1.8 0 3.5-1.1 4.1-2.8l4.2-9.9 3.4-8 8.8-20.7 8.8 20.7 3.4 8 4.1 9.6c.6 1.9 2.3 3.1 4.3 3.1 2.3 0 4.2-1.9 4.2-4.2v-.1c0-.6-.1-1.3-.5-1.9zm-105.1-40l18.7 42.3c.8 2.2 2.9 3.7 5.2 3.7h.4c2.4 0 4.5-1.4 5.3-3.7L224 20.2c.3-.6.5-1.3.6-2 0-2.3-1.7-4.1-4-4.2h-.1c-1.8 0-3.5 1.1-4.1 2.8l-4.2 9.9-3.4 8-8.8 20.7-8.8-20.7-3.4-8-4.1-9.6c-.6-1.9-2.3-3.1-4.3-3.1-2.3 0-4.2 1.9-4.2 4.2v.1c0 .7.1 1.4.5 1.9zm-65.8 20.5v-.1c0-14.4 10.9-26.4 26.4-26.4s26.2 11.9 26.2 26.3v.1c0 14.4-10.9 26.4-26.4 26.4s-26.2-11.9-26.2-26.3zm43.3 0v-.1c0-9.9-7.1-18.2-17.1-18.2s-17 8.1-17 18v.1c0 9.9 7.1 18.1 17.1 18.1s17-8 17-17.9zM48 19c0-2.5 1.9-4.5 4.4-4.5h.9c2.2 0 3.4 1.1 4.6 2.6L83 50.2V18.8c0-2.4 1.9-4.3 4.3-4.3s4.3 1.9 4.3 4.3v42.9c.1 2.4-1.8 4.4-4.2 4.5h-.5c-2.1 0-3.4-1.1-4.6-2.7l-25.9-34v32.4c0 2.4-1.9 4.3-4.3 4.3S48 64.3 48 61.8V19zm249.7 40.6c-.8-.6-1-1.8-.3-2.6.4-.4.9-.7 1.5-.7.4 0 .9.2 1.2.4 4.5 4.4 10.6 6.8 17 6.6 7.5 0 12.7-4.3 12.7-10.1v-.1c0-5.4-2.8-8.5-14.2-10.9-12.1-2.5-17-6.6-17-14.4v-.1c0-7.6 6.8-13.4 16.2-13.4 5.8-.2 11.5 1.7 16 5.3.5.4.8.9.8 1.5 0 1-.8 1.9-1.9 1.9-.4 0-.9-.2-1.2-.4-3.9-3.2-8.8-4.9-13.9-4.8-7.4 0-12.3 4.3-12.3 9.6v.1c0 5.4 2.7 8.7 14.7 11.2 11.6 2.4 16.5 6.6 16.5 14.1v.1c0 8.2-7 13.9-16.7 13.9-7.5 0-13.4-2.4-19.1-7.2zM407 44.8V16.6c0-1 .8-1.9 1.9-1.9 1 0 1.9.8 1.9 1.9v27.9c0 12 6.4 19 17 19 10.2 0 16.7-6.3 16.7-18.6V16.6c0-1 .8-1.9 1.9-1.9 1 0 1.9.8 1.9 1.9v27.8c0 14.7-8.4 22.5-20.6 22.5-12.2 0-20.7-7.8-20.7-22.1zm54.4-4.1v-.1c0-14.5 10.6-26.4 25.1-26.4 8.3 0 13.6 2.9 18.5 7.2.4.4.7.9.7 1.5 0 1-.9 1.9-1.9 1.9-.5 0-.9-.2-1.3-.5-4.2-3.9-9-6.6-16-6.6-12.1 0-21.2 10-21.2 22.9v.1c0 12.9 9.3 23 21.3 23 6.8 0 11.6-2.5 16.4-7.1.3-.4.8-.6 1.3-.6 1 0 1.8.8 1.8 1.8 0 .5-.2 1-.6 1.3-5.1 4.8-10.6 8-19 8-14.5-.2-25.1-11.8-25.1-26.4zm60.2 23.5V16.9c0-1 .8-1.9 1.9-1.9H556c1 .1 1.7.9 1.6 1.9-.1.9-.8 1.6-1.6 1.6h-30.6v20.1h27.4c1 0 1.7.8 1.7 1.8 0 .9-.8 1.7-1.7 1.7h-27.4v20.5h31c1 .1 1.7.9 1.6 1.9-.1.9-.8 1.6-1.6 1.6h-32.8c-1.2-.1-2-.9-2-1.9zM386.1 51.8l5.9 13.1c.3.8 1 1.4 1.9 1.5 1 0 1.8-.8 1.8-1.8 0-.4-.1-.8-.3-1.2L374 16.3c-.4-1.1-1.4-1.8-2.5-1.8h-.1c-1.1 0-2.2.7-2.5 1.8l-21.5 47.3c-.2.4-.3.8-.3 1.2 0 .9.8 1.6 1.7 1.6.8 0 1.6-.6 1.8-1.4l5.9-13.2 14.9-33 14.7 33z"/></svg>