<svg xmlns="http://www.w3.org/2000/svg" width="23.4" height="23" viewBox="-193.4 29 23.4 23"><path fill="#FFF" d="M-184.9 46.6c-4.9-.2-8.7-4.2-8.5-9.1s4.2-8.7 9.1-8.5c4.7.2 8.5 4 8.5 8.8-.1 4.9-4.2 8.9-9.1 8.8zm0-16.2c-4.1.1-7.3 3.5-7.1 7.6.1 4.1 3.5 7.3 7.6 7.1 4-.1 7.1-3.4 7.1-7.4-.1-4-3.5-7.3-7.6-7.3zm12.7 21.6c-.6 0-1.2-.2-1.6-.6l-6-5.8c-.5-.4-.6-1-.4-1.6.2-.4.4-.8.8-1.1.4-.5 1-.8 1.6-.9.4 0 .8.2 1.1.5l6 5.8c.8.8.9 2.1.1 3l-.1.1c-.4.4-.9.6-1.5.6zm-6.6-7.5l6.1 5.9c.3.3.8.3 1.1 0 .3-.3.3-.7 0-1l-6-5.8-.1-.1c-.2.1-.4.2-.6.4-.3.1-.4.3-.5.6z"/></svg>