<svg xmlns="http://www.w3.org/2000/svg" width="25.4" height="26" viewBox="-194.4 28 25.4 26"><path fill="#FFF" d="M-174.8 38.3c-2.8.1-5.2-2.1-5.3-5s2.1-5.2 5-5.3 5.2 2.1 5.3 5v.2c0 2.8-2.2 5.1-5 5.1zm0-8.7c-1.9-.1-3.6 1.5-3.6 3.4-.1 1.9 1.5 3.6 3.4 3.6s3.6-1.5 3.6-3.4v-.1c0-1.9-1.5-3.4-3.4-3.5zm-13.6 16.3c-3.2.1-5.9-2.4-6-5.6-.1-3.2 2.4-5.9 5.6-6 3.2-.1 5.9 2.4 6 5.6v.2c0 3.2-2.5 5.8-5.6 5.8zm0-9.9c-2.3-.1-4.2 1.7-4.3 4-.1 2.3 1.7 4.2 4 4.3s4.2-1.7 4.3-4v-.1c0-2.3-1.8-4.1-4-4.2zm13.2 18c-3.6.1-6.5-2.7-6.6-6.2s2.7-6.5 6.2-6.6c3.6-.1 6.5 2.7 6.6 6.2v.2c.1 3.5-2.7 6.3-6.2 6.4zm0-11.2c-2.6-.1-4.9 2-4.9 4.6-.1 2.6 2 4.9 4.6 4.9s4.9-2 4.9-4.6v-.1c0-2.7-2-4.8-4.6-4.8zm-9.2-3.9l-.6-1.5 6.6-2.9.6 1.5-6.6 2.9zm3.7 7.3L-185 44l.7-1.5 4.4 2.2-.8 1.5z"/></svg>