<svg xmlns="http://www.w3.org/2000/svg" width="25" height="25" viewBox="-194 28 25 25"><path fill="#FFF" d="M-183.1 53c-.9-.1-1.7-.6-2.3-1.3l-7.3-7.4c-1.7-1.7-1.7-2.8 0-4.5l11.6-11.6c.2-.2.4-.2.6-.2l9.8 1h.1c.3.1.6.4.6.7l1 9.8c0 .2-.1.5-.2.6l-11.6 11.6c-.6.7-1.4 1.2-2.3 1.3zm2.8-23.4l-11.3 11.3c-1.1 1.1-1.1 1.2 0 2.4l7.3 7.4c.3.4.7.7 1.2.9.5-.2.9-.5 1.2-.9l11.3-11.3-.9-8.9-8.8-.9zm4.4 8.4c-1.7 0-3.2-1.4-3.1-3.2s1.4-3.2 3.2-3.1c1.7 0 3.1 1.4 3.1 3.2-.1 1.7-1.5 3.1-3.2 3.1zm0-4.8c-.9 0-1.6.7-1.6 1.6 0 .9.7 1.6 1.6 1.6.9 0 1.6-.7 1.6-1.6 0-.8-.7-1.6-1.6-1.6z"/></svg>