<svg xmlns="http://www.w3.org/2000/svg" width="80.1" height="80.1" viewBox="166.5 0 80.1 80.1"><circle fill="#24A9E6" cx="206.6" cy="40.1" r="40.1"/><path fill="#FFF" d="M224.7 23.9c-1.6.9-3.3 1.7-5.2 2-1.5-1.6-3.6-2.6-5.9-2.6-4.4 0-8.1 3.7-8.1 8.3 0 .6.1 1.3.2 1.9-6.7-.3-12.6-3.7-16.7-8.6-.7 1.3-1.1 2.6-1.1 4.2 0 2.8 1.5 5.4 3.6 7-1.4 0-2.5-.4-3.7-1.1v.1c0 4 2.7 7.4 6.5 8.1-.6.2-1.4.3-2.1.3-.5 0-1.1 0-1.5-.1 1.1 3.3 4 5.7 7.6 5.8-2.7 2.2-6.2 3.6-10 3.6-.6 0-1.3 0-1.9-.1 3.6 2.3 7.8 3.7 12.4 3.7 14.9 0 23.1-12.6 23.1-23.6v-1.1c1.6-1.2 3-2.6 4-4.3-1.5.6-3.1 1.2-4.6 1.3 1.5-1.2 2.7-2.8 3.4-4.8z"/></svg>