<svg xmlns="http://www.w3.org/2000/svg" width="80.1" height="80.1" viewBox="166.5 0 80.1 80.1"><circle fill="#1CB1E6" cx="206.6" cy="40.1" r="40.1"/><path fill="#FFF" d="M220.1 23.7c-5.4-.2-9 2.8-11 9 .9-.4 1.9-.6 2.8-.6 2 0 2.8 1.1 2.6 3.3-.1 1.4-.9 3.3-2.6 5.8-1.6 2.5-2.8 3.8-3.7 3.8-1.1 0-2-1.9-2.8-5.8-.3-1.2-.8-4-1.6-8.7-.7-4.3-2.5-6.3-5.6-6.1-1.3.1-3.2 1.3-5.7 3.5-1.9 1.7-3.7 3.3-5.6 5l1.8 2.3c1.7-1.2 2.7-1.8 3.1-1.8 1.4 0 2.5 2.1 3.7 6.2 1.1 3.8 2.1 7.6 3.2 11.3 1.6 4.1 3.5 6.1 5.7 6.1 3.7 0 8.1-3.4 13.4-10.1 5.1-6.4 7.7-11.5 7.9-15.3.2-5.2-1.7-7.8-5.6-7.9z"/></svg>