<svg xmlns="http://www.w3.org/2000/svg" width="46" height="46" viewBox="-183 18 46 46"><path fill="#FFF" d="M-160 64c-12.7 0-23-10.3-23-23s10.3-23 23-23 23 10.3 23 23-10.3 23-23 23zm0-44.3c-11.7 0-21.3 9.5-21.3 21.3s9.5 21.3 21.3 21.3 21.3-9.5 21.3-21.3-9.6-21.3-21.3-21.3zm9.3 31.6h-5.5V43h2.8l.4-3.2h-3.2v-2.1c0-.9.3-1.6 1.6-1.6h1.7v-2.9c-.3 0-1.3-.1-2.5-.1-2.5 0-4.2 1.5-4.2 4.3v2.4h-2.8V43h2.8v8.3h-10.2c-.7 0-1.2-.5-1.2-1.2v-19c0-.7.5-1.2 1.2-1.2h19c.7 0 1.2.5 1.2 1.2v19c.1.7-.4 1.2-1.1 1.2z"/></svg>