<svg xmlns="http://www.w3.org/2000/svg" width="46" height="46" viewBox="-183 18 46 46"><path fill="#FFF" d="M-160 64c-12.7 0-23-10.3-23-23s10.3-23 23-23 23 10.3 23 23-10.3 23-23 23zm0-44.3c-11.7 0-21.3 9.5-21.3 21.3s9.5 21.3 21.3 21.3 21.3-9.5 21.3-21.3-9.6-21.3-21.3-21.3zm9 24.3h-1.8v-2.7h-2.7v-1.9h2.7v-2.6h1.8v2.6h2.6v1.9h-2.6V44zm-13.5 4.3c-4.1 0-7.5-3.3-7.5-7.5 0-4.1 3.3-7.5 7.5-7.5 1.9 0 3.7.7 5 1.9-1.6 1.5-1.5 1.6-2.1 2.2-.8-.6-1.6-1.1-2.9-1.1-2.5 0-4.4 2-4.4 4.4 0 2.5 1.9 4.4 4.4 4.4 2.4 0 3.4-1 4-3h-4v-3h7.2c.5 3.8-1 9.2-7.2 9.2z"/></svg>