<svg xmlns="http://www.w3.org/2000/svg" width="80.1" height="80.1" viewBox="166.5 0 80.1 80.1"><path fill="#F24033" d="M206.6 0c-22.1 0-40.1 17.9-40.1 40.1s17.9 40.1 40.1 40.1 40.1-17.9 40.1-40.1C246.5 17.9 228.6 0 206.6 0z"/><path fill="#FFF" d="M198.8 53.9c-7.5 0-13.5-6.1-13.5-13.6s6-13.6 13.5-13.6c3.5 0 6.7 1.4 9.1 3.5-2.8 2.6-2.7 2.8-3.8 3.9-1.4-1.2-3-2-5.3-2-4.4 0-7.9 3.6-7.9 8s3.5 8.1 7.9 8.1 6.1-2.1 7.3-5.3h-7v-5.3h12.6c1 6.6-1.8 16.3-12.9 16.3zM227.5 41h-4.2v5.3h-3.2V41h-5.2v-3.2h5.2v-4.2h3.2v4.2h4.2z"/></svg>