<svg xmlns="http://www.w3.org/2000/svg" width="80.1" height="80.1" viewBox="166.5 0 80.1 80.1"><circle fill="#2A5B83" cx="206.6" cy="40.1" r="40.1"/><path fill="#FFF" d="M222.3 20.6h-29.5c-2.5 0-4.6 2-4.6 4.5v29.5c0 2.5 2.1 4.5 4.6 4.5h29.4c2.5 0 4.6-2 4.6-4.5V25.1c.1-2.4-2-4.5-4.5-4.5zm-6.4 6.1c0-.6.5-1.2 1.2-1.2h3.6c.6 0 1.2.5 1.2 1.2v3.6c0 .6-.5 1.2-1.2 1.2h-3.6c-.6 0-1.2-.5-1.2-1.2v-3.6zm-8.3 5.9c4.1 0 7.5 3.3 7.5 7.4s-3.4 7.4-7.5 7.4-7.4-3.3-7.4-7.4c-.1-4.2 3.3-7.4 7.4-7.4zm15.6 21.8c0 .6-.5 1.2-1.2 1.2h-29c-.6 0-1.2-.5-1.2-1.2V36.3h4.8c-.6.9-.8 2.6-.8 3.7-.1 6.4 5.2 11.7 11.7 11.7s11.8-5.3 11.8-11.7c0-1.1-.1-2.7-.9-3.7h4.8v18.1z"/></svg>