<svg xmlns="http://www.w3.org/2000/svg" width="66.7" height="80" viewBox="173.1 0 66.7 80"><g opacity=".9" fill="#597B37"><path d="M217 30.8s0-.1.1-.1c-.1 0-.1 0-.1.1zM194.6 53.3c-1.1.8-2.6 0-2.6-1.3V23.6c0-2.8.9-5.4 2.3-7.5 0-.1.1-.2.2-.2l.2-.2L177 33.2c-5.2 5.2-5.2 13.6 0 18.9.9.9 1.8 1.6 2.8 2.1l1.8-1.8c.9-.9 2.3-.9 3.1 0 .8.9.9 2.3 0 3.1l-.2.2c3.8.5 7.7-.5 10.7-3.2-.1.4-.4.6-.6.8zM216.8 31.1c-.1.1-.2.3-.3.4.1-.2.2-.3.3-.4zM216.3 31.8c-.1.1-.2.3-.3.4.1-.1.2-.3.3-.4zM215.1 33.1l-19.2 19-.6.6.6-.6 19.2-19 .6-.6c-.2.1-.4.3-.6.6z"/></g><path fill="#FFF200" d="M227 7.7c-.9-.9-.9-2.3 0-3.1l3.9-3.9c.9-.9 2.3-.9 3.1 0 .9.9.9 2.3 0 3.1l-3.9 3.9c-.8.9-2.2.9-3.1 0z"/><path opacity=".9" fill="#9E1F63" d="M235.8 35.7l-2.6 2.6c-.8.8-2.3.6-3.4-.4l-.1-.1c-1.1-1.1-1.2-2.6-.4-3.4l2.7-2.7c-4.7-3.3-11.1-3.1-15.7.4 1-.5 2.3.2 2.3 1.4v28.3c0 2.8-.9 5.4-2.3 7.5 0 .1-.1.2-.2.2l-1.7 1.7c-.5.5-1.1 1-1.7 1.4.7-.4 1.3-1 1.9-1.6l19.2-19c4.5-4.4 5.1-11.2 2-16.3z"/><path fill="#DA1C5C" d="M239.2 28.5c.9.9.9 2.3 0 3.1l-1.3 1.3c-.9.9-2.3.9-3.1 0-.9-.9-.9-2.3 0-3.1l1.3-1.3c.8-1 2.2-1 3.1 0zM184.1 74.9c.9.9.9 2.3 0 3.1l-1.3 1.3c-.9.9-2.3.9-3.1 0-.9-.9-.9-2.3 0-3.1l1.3-1.3c.9-.8 2.3-.8 3.1 0z"/><g fill="#A3A136"><path d="M192.1 51.9V29.2h-5.6c-3.1 0-5.9 1.1-8.2 2.8l-.1.1-1.1 1c-2.6 2.6-3.9 6-3.9 9.4 0 4.1 1.9 7.7 4.8 10.2l-1.8 1.8c-.9.9-.9 2.3 0 3.1.9.8 2.3.9 3.1 0l5.1-5 .3-.3s.1.1.2.1c.9.9.9 2.3 0 3.1l-.1.1c.6.1 1.2.1 1.8.1h1.8c2.2-.3 4.3-1.2 6.2-2.6-1.1.9-2.5.2-2.5-1.2zM195.2 52.8c-.1.1-.2.2-.3.2.1 0 .2-.1.3-.2zM215.7 32.4l-.6.6.6-.6zM216.1 32.1c0-.1.1-.1.2-.2-.1 0-.2 0-.2.2z"/></g><path fill="#DA1C5C" d="M235.8 35.6l-2.6 2.6c-.8.8-2.3.6-3.4-.4l-.1-.1c-1.1-1.1-1.2-2.6-.4-3.4l2.7-2.6c-2.1-1.5-4.7-2.3-7.5-2.3h-1.8c-2.2.3-4.4 1.2-6.3 2.7 1-.5 2.3.2 2.3 1.4V56h5.8c3.1 0 5.9-1.1 8.2-2.8l.1-.1 1.1-1.1c2.6-2.6 3.9-6 3.9-9.4-.1-2.6-.8-4.9-2-7z"/><path fill="#EE2A7B" d="M216.2 32.1c-.4.3-.9.7-1.3 1.1l-19.2 19c-1.8 1.8-3 4-3.6 6.4V61l3.6-3.6c.8-.8 2.2-.9 3.1 0 0 0-.1.1-.2.1l-12.3 12.3c-.9.9-.9 2.3 0 3.1.9.8 2.3.9 3.1 0l4.6-4.6c.6 1 1.4 2 2.2 2.8l8.3-8.3c.8-.8 1.9-.8 2.8-.3L195.7 74c-.9.9-.9 2.3 0 3.1.9.8 2.3.9 3.1 0l2.6-2.6c1.2.3 2.4.5 3.7.6 3.4 0 6.7-1.4 9.2-3.9l1.7-1.7.2-.2c1.5-2.1 2.3-4.7 2.3-7.5V33.4c.2-1.3-1.3-2.1-2.3-1.3z"/><path fill="#FFF200" d="M224.8 9.8c-.9-.9-2.3-.9-3.1 0l-5.7 5.7c-1.1-1.4-2.4-2.6-4-3.5l-4.4 4.4c-.8.8-1.9.8-2.8.3l9.7-9.7c.9-.9.9-2.3 0-3.1s-2.3-.9-3.1 0l-6.5 6.3c-3.2.2-6.2 1.5-8.6 3.8l-1.7 1.8-.2.2c-1.5 2.1-2.3 4.7-2.3 7.5V52c0 1.3 1.5 2.1 2.6 1.3.4-.3.9-.7 1.3-1.1l19.2-19c1.8-1.8 3-4 3.6-6.4v-3.1c0-.6 0-1.3-.1-1.9l-.9.9c-.8.8-1.9.8-2.8.3l9.9-9.9c.8-1 .8-2.4-.1-3.3z"/></svg>