<svg xmlns="http://www.w3.org/2000/svg" width="32" height="24.5" viewBox="-190 28.5 32 24.5"><path fill="#FFF" d="M-159.7 42c-.9-1.1-2.2-1.7-3.6-1.8.2-1.4.7-2.7 1.6-3.8.9-1.1 2.1-2 3.4-2.6l-3.2-5.4c-1.1.4-2.2.9-3.3 1.6-1.4.8-2.6 1.8-3.6 2.9-1.3 1.4-2.3 2.9-3 4.7-.9 2.2-1.3 4.5-1.2 6.8-.1 2.3.6 4.5 2.1 6.2 1.5 1.6 3.6 2.5 5.8 2.3 1.8.1 3.5-.6 4.9-1.8 1.3-1.2 2-2.9 2-4.7-.1-1.5-.7-3.2-1.9-4.4zm-17.3 0c-.9-1.1-2.2-1.7-3.6-1.8.2-1.4.7-2.7 1.6-3.8.9-1.1 2.1-2 3.4-2.6l-3.2-5.4c-1.1.4-2.2.9-3.3 1.6-1.4.8-2.6 1.8-3.6 2.9-1.3 1.4-2.3 2.9-3 4.7-.9 2.2-1.3 4.5-1.2 6.8-.1 2.3.6 4.5 2.1 6.2 1.5 1.6 3.6 2.5 5.8 2.3 1.8.1 3.5-.6 4.9-1.8 1.3-1.2 2-2.9 2-4.7-.1-1.5-.7-3.2-1.9-4.4z"/></svg>