<svg xmlns="http://www.w3.org/2000/svg" width="37" height="31" viewBox="-187 26 37 31"><path fill="#FFF" d="M-151 26.6c-1.5.9-3.1 1.6-4.8 1.9-1.4-1.6-3.4-2.5-5.5-2.5-4.3.1-7.7 3.6-7.6 7.8 0 .6.1 1.2.2 1.8-6.2-.3-11.9-3.3-15.7-8.2-.7 1.2-1 2.6-1 3.9 0 2.6 1.3 5 3.4 6.5-1.2 0-2.4-.4-3.4-1v.2c0 3.7 2.5 6.9 6.1 7.7-.7.2-1.3.3-2 .3-.5 0-1 0-1.4-.1.9 3.2 3.8 5.3 7.1 5.4-2.7 2.2-6 3.4-9.4 3.4-.6 0-1.2 0-1.8-.1 3.5 2.3 7.5 3.5 11.6 3.5 14 0 21.6-11.9 21.6-22.3v-1c1.5-1.1 2.8-2.5 3.8-4-1.4.6-2.9 1-4.4 1.2 1.5-1.1 2.7-2.7 3.2-4.4z"/></svg>