<svg xmlns="http://www.w3.org/2000/svg" width="46" height="46" viewBox="-183 18 46 46"><path fill="#FFF" d="M-160 64c-12.7 0-23-10.3-23-23s10.3-23 23-23 23 10.3 23 23-10.3 23-23 23zm0-44.3c-11.7 0-21.3 9.5-21.3 21.3s9.5 21.3 21.3 21.3 21.3-9.5 21.3-21.3-9.6-21.3-21.3-21.3zm8.4 16.6v.6c0 6.1-4.5 13.1-12.7 13.1-2.5 0-4.9-.8-6.9-2.1.4 0 .7.1 1.1.1 2.1 0 4-.7 5.6-2-2 0-3.6-1.4-4.2-3.2.3.1.6.1.8.1.4 0 .8-.1 1.2-.2-2-.4-3.6-2.3-3.6-4.5v-.1c.6.3 1.3.5 2 .6-1.2-.8-2-2.2-2-3.8 0-.8.2-1.6.6-2.3 2.2 2.8 5.5 4.6 9.2 4.8-.1-.3-.1-.7-.1-1 0-2.5 2-4.6 4.5-4.6 1.3 0 2.5.6 3.3 1.4 1-.2 2-.6 2.8-1.1-.3 1.1-1 2-2 2.5.9-.1 1.8-.4 2.6-.7-.6 1-1.3 1.8-2.2 2.4z"/></svg>