<?xml version="1.0" encoding="utf-8"?>
<!-- Generator: Adobe Illustrator 18.1.1, SVG Export Plug-In . SVG Version: 6.00 Build 0)  -->
<!DOCTYPE svg PUBLIC "-//W3C//DTD SVG 1.1//EN" "http://www.w3.org/Graphics/SVG/1.1/DTD/svg11.dtd">
<svg version="1.1" id="Layer_1" xmlns="http://www.w3.org/2000/svg" xmlns:xlink="http://www.w3.org/1999/xlink" x="0px" y="0px"
	 width="19px" height="19px" viewBox="-197 31 19 19" enable-background="new -197 31 19 19" xml:space="preserve">
<path id="close_icon_white.svg" fill="#FFFFFF" d="M-196.7,48.3l17-17c0.4-0.4,1-0.4,1.4-0.1c0.4,0.4,0.4,1,0.1,1.4
	c0,0-0.1,0.1-0.1,0.1l-17,17c-0.4,0.4-1,0.4-1.4,0.1C-197.1,49.4-197.2,48.8-196.7,48.3C-196.8,48.3-196.7,48.3-196.7,48.3z
	 M-196.7,31.3c0.4-0.4,1-0.4,1.4,0l17,17c0.4,0.4,0.4,1,0.1,1.4c-0.4,0.4-1,0.4-1.4,0.1c0,0-0.1-0.1-0.1-0.1l-17-17
	C-197.1,32.3-197.1,31.7-196.7,31.3C-196.7,31.3-196.7,31.3-196.7,31.3z"/>
</svg>
