<?xml version="1.0" encoding="utf-8"?>
<!-- Generator: Adobe Illustrator 18.1.1, SVG Export Plug-In . SVG Version: 6.00 Build 0)  -->
<!DOCTYPE svg PUBLIC "-//W3C//DTD SVG 1.1//EN" "http://www.w3.org/Graphics/SVG/1.1/DTD/svg11.dtd">
<svg version="1.1" id="Layer_1" xmlns="http://www.w3.org/2000/svg" xmlns:xlink="http://www.w3.org/1999/xlink" x="0px" y="0px"
	 width="22px" height="21px" viewBox="-195 30 22 21" enable-background="new -195 30 22 21" xml:space="preserve">
<path id="comments_v2.svg" fill="#FFFFFF" d="M-189.6,51c-0.1,0-0.3,0-0.4-0.1c-0.3-0.2-0.4-0.5-0.4-0.8l0.1-3.2h-2
	c-1.5-0.1-2.7-1.4-2.7-2.9c0,0,0-0.1,0-0.1V32.9c-0.1-1.5,1.1-2.8,2.6-2.9c0,0,0.1,0,0.1,0h16.4c1.6,0,2.9,1.3,3,2.9V44
	c0,1.6-1.3,2.9-3,3h-7.9l-5.2,3.9C-189.2,50.9-189.4,51-189.6,51z M-192.3,31.7c-0.6,0-1.1,0.5-1,1.1c0,0,0,0.1,0,0.1V44
	c-0.1,0.6,0.4,1.2,1,1.3c0,0,0,0,0.1,0h2.9c0.2,0,0.4,0.1,0.6,0.3c0.2,0.2,0.2,0.4,0.2,0.6l-0.1,2.3l4.1-3c0.1-0.1,0.3-0.2,0.5-0.2
	h8.2c0.7,0,1.3-0.6,1.3-1.3V32.9c-0.1-0.7-0.7-1.2-1.3-1.2L-192.3,31.7L-192.3,31.7z"/>
</svg>
