<?xml version="1.0" encoding="utf-8"?>
<!-- Generator: Adobe Illustrator 18.1.1, SVG Export Plug-In . SVG Version: 6.00 Build 0)  -->
<!DOCTYPE svg PUBLIC "-//W3C//DTD SVG 1.1//EN" "http://www.w3.org/Graphics/SVG/1.1/DTD/svg11.dtd">
<svg version="1.1" id="_x30_4-FULL-COLOR" xmlns="http://www.w3.org/2000/svg" xmlns:xlink="http://www.w3.org/1999/xlink" x="0px"
	 y="0px" width="80.1px" height="80.1px" viewBox="166.5 0 80.1 80.1" enable-background="new 166.5 0 80.1 80.1"
	 xml:space="preserve">
<g>
	<path fill="#43619C" d="M206.6,0c-22.1,0-40.1,17.9-40.1,40.1s17.9,40.1,40.1,40.1s40.1-17.9,40.1-40.1C246.5,17.9,228.6,0,206.6,0
		z"/>
	<path fill="#FFFFFF" d="M225.9,56.9c0,1.2-0.5,2-1.8,2h-9.8V44.2h5.1l0.7-6.3h-5.8v-3.3c0-1.7,0.4-3.1,2.8-3.1h3.5v-5.1
		c-1.1-0.1-2.7-0.2-4.8-0.2c-4.4,0-7.8,2.7-7.8,7.7v3.9h-5.3v6.3h5.3v14.8h-18.2c-1.2,0-1.8-0.7-1.8-2V22.6c0-1.2,0.6-2.6,1.8-2.6
		h34.5c1.2,0,1.8,1.5,1.8,2.6v34.4H225.9z"/>
</g>
</svg>
