<?xml version="1.0" encoding="utf-8"?>
<!-- Generator: Adobe Illustrator 18.1.1, SVG Export Plug-In . SVG Version: 6.00 Build 0)  -->
<!DOCTYPE svg PUBLIC "-//W3C//DTD SVG 1.1//EN" "http://www.w3.org/Graphics/SVG/1.1/DTD/svg11.dtd">
<svg version="1.1" id="Layer_1" xmlns="http://www.w3.org/2000/svg" xmlns:xlink="http://www.w3.org/1999/xlink" x="0px" y="0px"
	 width="46px" height="46px" viewBox="-183 18 46 46" enable-background="new -183 18 46 46" xml:space="preserve">
<path fill="#FFFFFF" d="M-160,64c-12.7,0-23-10.3-23-23c0-12.7,10.3-23,23-23s23,10.3,23,23C-137,53.7-147.3,64-160,64z M-160,19.7
	c-11.7,0-21.3,9.5-21.3,21.3s9.5,21.3,21.3,21.3s21.3-9.5,21.3-21.3S-148.3,19.7-160,19.7z M-150.7,51.3h-5.5V43h2.8l0.4-3.2h-3.2
	v-2.1c0-0.9,0.3-1.6,1.6-1.6h1.7v-2.9c-0.3,0-1.3-0.1-2.5-0.1c-2.5,0-4.2,1.5-4.2,4.3v2.4h-2.8V43h2.8v8.3h-10.2
	c-0.7,0-1.2-0.5-1.2-1.2v-19c0-0.7,0.5-1.2,1.2-1.2h19c0.7,0,1.2,0.5,1.2,1.2v19C-149.5,50.8-150,51.3-150.7,51.3z"/>
</svg>
