<?xml version="1.0" encoding="utf-8"?>
<!-- Generator: Adobe Illustrator 18.1.1, SVG Export Plug-In . SVG Version: 6.00 Build 0)  -->
<!DOCTYPE svg PUBLIC "-//W3C//DTD SVG 1.1//EN" "http://www.w3.org/Graphics/SVG/1.1/DTD/svg11.dtd">
<svg version="1.1" id="Layer_1" xmlns="http://www.w3.org/2000/svg" xmlns:xlink="http://www.w3.org/1999/xlink" x="0px" y="0px"
	 width="36px" height="25px" viewBox="-188 28 36 25" enable-background="new -188 28 36 25" xml:space="preserve">
<path id="arrow-L" fill="#FFFFFF" d="M-186.4,38.9h29.1l-8.3-8.3c-0.6-0.6-0.6-1.6,0-2.2c0.6-0.6,1.6-0.6,2.2,0l0,0l10.9,10.9
	c0,0,0.1,0,0.1,0.1c0,0,0.1,0.1,0.1,0.2c0.1,0.2,0.2,0.3,0.3,0.5c0,0.1,0,0.1,0,0.2c0.1,0.5-0.1,1-0.4,1.3c0,0-0.1,0.1-0.1,0.1
	l-10.9,10.9c-0.6,0.6-1.6,0.6-2.2,0c-0.6-0.6-0.6-1.6,0-2.2l0,0l8.3-8.3h-29.1c-0.9,0-1.6-0.7-1.6-1.6
	C-188,39.6-187.3,38.9-186.4,38.9z"/>
</svg>
