<?xml version="1.0" encoding="utf-8"?>
<!-- Generator: Adobe Illustrator 18.1.1, SVG Export Plug-In . SVG Version: 6.00 Build 0)  -->
<!DOCTYPE svg PUBLIC "-//W3C//DTD SVG 1.1//EN" "http://www.w3.org/Graphics/SVG/1.1/DTD/svg11.dtd">
<svg version="1.1" id="Layer_1" xmlns="http://www.w3.org/2000/svg" xmlns:xlink="http://www.w3.org/1999/xlink" x="0px" y="0px"
	 width="46px" height="46px" viewBox="-183 18 46 46" enable-background="new -183 18 46 46" xml:space="preserve">
<path fill="#FFFFFF" d="M-160,64c-12.7,0-23-10.3-23-23c0-12.7,10.3-23,23-23s23,10.3,23,23C-137,53.7-147.3,64-160,64z M-160,19.7
	c-11.7,0-21.3,9.5-21.3,21.3s9.5,21.3,21.3,21.3s21.3-9.5,21.3-21.3S-148.3,19.7-160,19.7z M-151,44h-1.8v-2.7h-2.7v-1.9h2.7v-2.6
	h1.8v2.6h2.6v1.9h-2.6V44z M-164.5,48.3c-4.1,0-7.5-3.3-7.5-7.5c0-4.1,3.3-7.5,7.5-7.5c1.9,0,3.7,0.7,5,1.9
	c-1.6,1.5-1.5,1.6-2.1,2.2c-0.8-0.6-1.6-1.1-2.9-1.1c-2.5,0-4.4,2-4.4,4.4c0,2.5,1.9,4.4,4.4,4.4c2.4,0,3.4-1,4-3c-1.2,0-4,0-4,0v-3
	h7.2C-156.8,42.9-158.3,48.3-164.5,48.3z"/>
</svg>
