<?xml version="1.0" encoding="utf-8"?>
<!-- Generator: Adobe Illustrator 18.1.1, SVG Export Plug-In . SVG Version: 6.00 Build 0)  -->
<!DOCTYPE svg PUBLIC "-//W3C//DTD SVG 1.1//EN" "http://www.w3.org/Graphics/SVG/1.1/DTD/svg11.dtd">
<svg version="1.1" id="_x30_4-FULL-COLOR" xmlns="http://www.w3.org/2000/svg" xmlns:xlink="http://www.w3.org/1999/xlink" x="0px"
	 y="0px" width="80.1px" height="80.1px" viewBox="166.5 0 80.1 80.1" enable-background="new 166.5 0 80.1 80.1"
	 xml:space="preserve">
<g>
	<path fill="#F24033" d="M206.6,0c-22.1,0-40.1,17.9-40.1,40.1s17.9,40.1,40.1,40.1s40.1-17.9,40.1-40.1C246.5,17.9,228.6,0,206.6,0
		z"/>
	<path fill="#FFFFFF" d="M198.8,53.9c-7.5,0-13.5-6.1-13.5-13.6s6-13.6,13.5-13.6c3.5,0,6.7,1.4,9.1,3.5c-2.8,2.6-2.7,2.8-3.8,3.9
		c-1.4-1.2-3-2-5.3-2c-4.4,0-7.9,3.6-7.9,8s3.5,8.1,7.9,8.1s6.1-2.1,7.3-5.3c-2.1,0-7,0-7,0v-5.3h12.6
		C212.7,44.2,209.9,53.9,198.8,53.9z"/>
	<polygon fill="#FFFFFF" points="227.5,41 223.3,41 223.3,46.3 220.1,46.3 220.1,41 214.9,41 214.9,37.8 220.1,37.8 220.1,33.6 
		223.3,33.6 223.3,37.8 227.5,37.8 	"/>
</g>
</svg>
