<?xml version="1.0" encoding="utf-8"?>
<!-- Generator: Adobe Illustrator 18.1.1, SVG Export Plug-In . SVG Version: 6.00 Build 0)  -->
<!DOCTYPE svg PUBLIC "-//W3C//DTD SVG 1.1//EN" "http://www.w3.org/Graphics/SVG/1.1/DTD/svg11.dtd">
<svg version="1.1" id="Layer_1" xmlns="http://www.w3.org/2000/svg" xmlns:xlink="http://www.w3.org/1999/xlink" x="0px" y="0px"
	 width="37px" height="37px" viewBox="-188 22 37 37" enable-background="new -188 22 37 37" xml:space="preserve">
<path id="ig.svg" fill="#FFFFFF" d="M-155.4,22h-28.2c-2.4,0-4.4,2-4.4,4.4c0,0,0,0,0,0v28.2c0,2.4,2,4.4,4.4,4.4c0,0,0,0,0,0h28.2
	c2.4,0,4.4-2,4.4-4.4c0,0,0,0,0,0V26.4C-151,24-153,22-155.4,22C-155.4,22-155.4,22-155.4,22z M-161.4,27.8c0-0.6,0.5-1.2,1.2-1.2
	h3.5c0.6,0,1.2,0.5,1.2,1.2v3.5c0,0.6-0.5,1.1-1.2,1.1h-3.5c-0.6,0-1.2-0.5-1.2-1.1V27.8z M-169.5,33.5c3.9,0,7.1,3.2,7.1,7.1
	c0,3.9-3.2,7.1-7.1,7.1c-3.9,0-7.1-3.2-7.1-7.1C-176.6,36.6-173.4,33.5-169.5,33.5L-169.5,33.5z M-154.5,54.4c0,0.6-0.5,1.2-1.2,1.2
	h-27.7c-0.6,0-1.2-0.5-1.2-1.2V37.1h4.6c-0.6,1.1-0.8,2.3-0.8,3.5c0,6.2,5,11.2,11.2,11.2s11.2-5,11.2-11.2c0.1-1.2-0.2-2.5-0.9-3.5
	h4.6L-154.5,54.4L-154.5,54.4z"/>
</svg>
