<?xml version="1.0" encoding="utf-8"?>
<!-- Generator: Adobe Illustrator 18.1.1, SVG Export Plug-In . SVG Version: 6.00 Build 0)  -->
<!DOCTYPE svg PUBLIC "-//W3C//DTD SVG 1.1//EN" "http://www.w3.org/Graphics/SVG/1.1/DTD/svg11.dtd">
<svg version="1.1" id="_x30_4-FULL-COLOR" xmlns="http://www.w3.org/2000/svg" xmlns:xlink="http://www.w3.org/1999/xlink" x="0px"
	 y="0px" width="80.1px" height="80.1px" viewBox="166.5 0 80.1 80.1" enable-background="new 166.5 0 80.1 80.1"
	 xml:space="preserve">
<g id="Instagram_6_">
	<circle fill="#2A5B83" cx="206.6" cy="40.1" r="40.1"/>
	<path id="Instagram_2_" fill="#FFFFFF" d="M222.3,20.6h-29.5c-2.5,0-4.6,2-4.6,4.5v29.5c0,2.5,2.1,4.5,4.6,4.5h29.4
		c2.5,0,4.6-2,4.6-4.5V25.1C226.9,22.7,224.8,20.6,222.3,20.6z M215.9,26.7c0-0.6,0.5-1.2,1.2-1.2h3.6c0.6,0,1.2,0.5,1.2,1.2v3.6
		c0,0.6-0.5,1.2-1.2,1.2h-3.6c-0.6,0-1.2-0.5-1.2-1.2V26.7z M207.6,32.6c4.1,0,7.5,3.3,7.5,7.4s-3.4,7.4-7.5,7.4s-7.4-3.3-7.4-7.4
		C200.1,35.8,203.5,32.6,207.6,32.6z M223.2,54.4c0,0.6-0.5,1.2-1.2,1.2h-29c-0.6,0-1.2-0.5-1.2-1.2V36.3h4.8
		c-0.6,0.9-0.8,2.6-0.8,3.7c-0.1,6.4,5.2,11.7,11.7,11.7s11.8-5.3,11.8-11.7c0-1.1-0.1-2.7-0.9-3.7h4.8v18.1H223.2z"/>
</g>
</svg>
