<?xml version="1.0" encoding="utf-8"?>
<!-- Generator: Adobe Illustrator 18.1.1, SVG Export Plug-In . SVG Version: 6.00 Build 0)  -->
<!DOCTYPE svg PUBLIC "-//W3C//DTD SVG 1.1//EN" "http://www.w3.org/Graphics/SVG/1.1/DTD/svg11.dtd">
<svg version="1.1" id="Layer_1" xmlns="http://www.w3.org/2000/svg" xmlns:xlink="http://www.w3.org/1999/xlink" x="0px" y="0px"
	 width="66.7px" height="80px" viewBox="173.1 0 66.7 80" enable-background="new 173.1 0 66.7 80" xml:space="preserve">
<g opacity="0.9">
	<path fill="#597B37" d="M217,30.8c0,0,0-0.1,0.1-0.1l0,0C217,30.7,217,30.7,217,30.8z"/>
	<path fill="#597B37" d="M194.6,53.3c-1.1,0.8-2.6,0-2.6-1.3V23.6c0-2.8,0.9-5.4,2.3-7.5c0-0.1,0.1-0.2,0.2-0.2l0.2-0.2L177,33.2
		c-5.2,5.2-5.2,13.6,0,18.9c0.9,0.9,1.8,1.6,2.8,2.1l1.8-1.8c0.9-0.9,2.3-0.9,3.1,0c0.8,0.9,0.9,2.3,0,3.1l-0.2,0.2
		c3.8,0.5,7.7-0.5,10.7-3.2C195.1,52.9,194.8,53.1,194.6,53.3z"/>
	<path fill="#597B37" d="M216.8,31.1c-0.1,0.1-0.2,0.3-0.3,0.4C216.6,31.3,216.7,31.2,216.8,31.1z"/>
	<path fill="#597B37" d="M216.3,31.8c-0.1,0.1-0.2,0.3-0.3,0.4C216.1,32.1,216.2,31.9,216.3,31.8z"/>
	<path fill="#597B37" d="M215.1,33.1l-19.2,19c-0.2,0.2-0.4,0.4-0.6,0.6c0.2-0.2,0.4-0.4,0.6-0.6L215.1,33.1
		c0.2-0.2,0.4-0.4,0.6-0.6C215.5,32.6,215.3,32.8,215.1,33.1z"/>
</g>
<path fill="#FFF200" d="M227,7.7L227,7.7c-0.9-0.9-0.9-2.3,0-3.1l3.9-3.9c0.9-0.9,2.3-0.9,3.1,0l0,0c0.9,0.9,0.9,2.3,0,3.1l-3.9,3.9
	C229.3,8.6,227.9,8.6,227,7.7z"/>
<path opacity="0.9" fill="#9E1F63" enable-background="new    " d="M235.8,35.7l-2.6,2.6c-0.8,0.8-2.3,0.6-3.4-0.4l-0.1-0.1
	c-1.1-1.1-1.2-2.6-0.4-3.4l2.7-2.7c-4.7-3.3-11.1-3.1-15.7,0.4c1-0.5,2.3,0.2,2.3,1.4v28.3c0,2.8-0.9,5.4-2.3,7.5
	c0,0.1-0.1,0.2-0.2,0.2l-1.7,1.7c-0.5,0.5-1.1,1-1.7,1.4c0.7-0.4,1.3-1,1.9-1.6l19.2-19C238.3,47.6,238.9,40.8,235.8,35.7z"/>
<path fill="#DA1C5C" d="M239.2,28.5L239.2,28.5c0.9,0.9,0.9,2.3,0,3.1l-1.3,1.3c-0.9,0.9-2.3,0.9-3.1,0l0,0c-0.9-0.9-0.9-2.3,0-3.1
	l1.3-1.3C236.9,27.5,238.3,27.5,239.2,28.5z"/>
<path fill="#DA1C5C" d="M184.1,74.9L184.1,74.9c0.9,0.9,0.9,2.3,0,3.1l-1.3,1.3c-0.9,0.9-2.3,0.9-3.1,0l0,0c-0.9-0.9-0.9-2.3,0-3.1
	l1.3-1.3C181.9,74.1,183.3,74.1,184.1,74.9z"/>
<g>
	<path fill="#A3A136" d="M192.1,51.9V29.2h-5.6c-3.1,0-5.9,1.1-8.2,2.8c0,0-0.1,0.1-0.1,0.1l-1.1,1c-2.6,2.6-3.9,6-3.9,9.4
		c0,4.1,1.9,7.7,4.8,10.2l-1.8,1.8c-0.9,0.9-0.9,2.3,0,3.1c0.9,0.8,2.3,0.9,3.1,0l5.1-5c0.1-0.1,0.2-0.2,0.3-0.3
		c0,0,0.1,0.1,0.2,0.1c0.9,0.9,0.9,2.3,0,3.1l-0.1,0.1c0.6,0.1,1.2,0.1,1.8,0.1h1.6c0.1,0,0.1,0,0.2,0c2.2-0.3,4.3-1.2,6.2-2.6
		C193.5,54,192.1,53.3,192.1,51.9z"/>
	<path fill="#A3A136" d="M195.2,52.8c-0.1,0.1-0.2,0.2-0.3,0.2C195,53,195.1,52.9,195.2,52.8z"/>
	<path fill="#A3A136" d="M215.7,32.4c-0.2,0.2-0.4,0.4-0.6,0.6C215.3,32.8,215.5,32.6,215.7,32.4z"/>
	<path fill="#A3A136" d="M216.1,32.1c0-0.1,0.1-0.1,0.2-0.2l0,0C216.2,31.9,216.1,31.9,216.1,32.1z"/>
</g>
<path fill="#DA1C5C" d="M235.8,35.6l-2.6,2.6c-0.8,0.8-2.3,0.6-3.4-0.4l-0.1-0.1c-1.1-1.1-1.2-2.6-0.4-3.4l2.7-2.6
	c-2.1-1.5-4.7-2.3-7.5-2.3h-1.6c-0.1,0-0.1,0-0.2,0c-2.2,0.3-4.4,1.2-6.3,2.7c1-0.5,2.3,0.2,2.3,1.4V56h5.8c3.1,0,5.9-1.1,8.2-2.8
	c0,0,0.1-0.1,0.1-0.1l1.1-1.1c2.6-2.6,3.9-6,3.9-9.4C237.7,40,237,37.7,235.8,35.6z"/>
<path fill="#EE2A7B" d="M216.2,32.1c-0.4,0.3-0.9,0.7-1.3,1.1l-19.2,19c-1.8,1.8-3,4-3.6,6.4c0,0.1,0,0.2,0,0.4V61l3.6-3.6
	c0.8-0.8,2.2-0.9,3.1,0c0,0-0.1,0.1-0.2,0.1l-12.3,12.3c-0.9,0.9-0.9,2.3,0,3.1c0.9,0.8,2.3,0.9,3.1,0l4.6-4.6c0.6,1,1.4,2,2.2,2.8
	l8.3-8.3c0.8-0.8,1.9-0.8,2.8-0.3L195.7,74c-0.9,0.9-0.9,2.3,0,3.1c0.9,0.8,2.3,0.9,3.1,0l2.6-2.6c1.2,0.3,2.4,0.5,3.7,0.6
	c3.4,0,6.7-1.4,9.2-3.9l1.7-1.7c0.1-0.1,0.1-0.1,0.2-0.2c1.5-2.1,2.3-4.7,2.3-7.5V33.4C218.7,32.1,217.2,31.3,216.2,32.1z"/>
<path fill="#FFF200" d="M224.8,9.8c-0.9-0.9-2.3-0.9-3.1,0l-5.7,5.7c-1.1-1.4-2.4-2.6-4-3.5l-4.4,4.4c-0.8,0.8-1.9,0.8-2.8,0.3
	l9.7-9.7c0.9-0.9,0.9-2.3,0-3.1s-2.3-0.9-3.1,0l-6.5,6.3c-3.2,0.2-6.2,1.5-8.6,3.8l-1.7,1.8c-0.1,0.1-0.1,0.1-0.2,0.2
	c-1.5,2.1-2.3,4.7-2.3,7.5V52c0,1.3,1.5,2.1,2.6,1.3c0.4-0.3,0.9-0.7,1.3-1.1l19.2-19c1.8-1.8,3-4,3.6-6.4c0-0.1,0-0.2,0-0.4v-2.7
	c0-0.6,0-1.3-0.1-1.9l-0.9,0.9c-0.8,0.8-1.9,0.8-2.8,0.3l9.9-9.9C225.7,12.1,225.7,10.7,224.8,9.8z"/>
</svg>
