<?xml version="1.0" encoding="utf-8"?>
<!-- Generator: Adobe Illustrator 18.1.1, SVG Export Plug-In . SVG Version: 6.00 Build 0)  -->
<!DOCTYPE svg PUBLIC "-//W3C//DTD SVG 1.1//EN" "http://www.w3.org/Graphics/SVG/1.1/DTD/svg11.dtd">
<svg version="1.1" id="Layer_1" xmlns="http://www.w3.org/2000/svg" xmlns:xlink="http://www.w3.org/1999/xlink" x="0px" y="0px"
	 width="509.9px" height="53px" viewBox="48 14 509.9 53" enable-background="new 48 14 509.9 53" xml:space="preserve">
<path d="M280.8,60.2l-18.7-42.3c-0.8-2.2-2.9-3.7-5.2-3.7h-0.4c-2.4,0-4.5,1.4-5.3,3.7l-18.7,42.3c-0.3,0.6-0.5,1.3-0.6,2
	c0,2.3,1.7,4.1,4,4.2c0,0,0.1,0,0.1,0c1.8,0,3.5-1.1,4.1-2.8l4.2-9.9l3.4-8l8.8-20.7l8.8,20.7l3.4,8l4.1,9.6
	c0.6,1.9,2.3,3.1,4.3,3.1c2.3,0,4.2-1.9,4.2-4.2c0,0,0-0.1,0-0.1C281.3,61.5,281.2,60.8,280.8,60.2z M175.7,20.2l18.7,42.3
	c0.8,2.2,2.9,3.7,5.2,3.7h0.4c2.4,0,4.5-1.4,5.3-3.7L224,20.2c0.3-0.6,0.5-1.3,0.6-2c0-2.3-1.7-4.1-4-4.2c0,0-0.1,0-0.1,0
	c-1.8,0-3.5,1.1-4.1,2.8l-4.2,9.9l-3.4,8l-8.8,20.7l-8.8-20.7l-3.4-8l-4.1-9.6c-0.6-1.9-2.3-3.1-4.3-3.1c-2.3,0-4.2,1.9-4.2,4.2
	c0,0,0,0.1,0,0.1C175.2,19,175.3,19.7,175.7,20.2z M109.9,40.7v-0.1c0-14.4,10.9-26.4,26.4-26.4s26.2,11.9,26.2,26.3v0.1
	c0,14.4-10.9,26.4-26.4,26.4S109.9,55.1,109.9,40.7L109.9,40.7z M153.2,40.7v-0.1c0-9.9-7.1-18.2-17.1-18.2s-17,8.1-17,18v0.1
	c0,9.9,7.1,18.1,17.1,18.1S153.2,50.6,153.2,40.7L153.2,40.7z M48,19c0-2.5,1.9-4.5,4.4-4.5c0,0,0,0,0,0h0.9c2.2,0,3.4,1.1,4.6,2.6
	l25.1,33.1V18.8c0-2.4,1.9-4.3,4.3-4.3s4.3,1.9,4.3,4.3l0,0v42.9c0.1,2.4-1.8,4.4-4.2,4.5c0,0-0.1,0-0.1,0h-0.4
	c-2.1,0-3.4-1.1-4.6-2.7l-25.9-34v32.4c0,2.4-1.9,4.3-4.3,4.3S48,64.3,48,61.8L48,19L48,19z M297.7,59.6c-0.8-0.6-1-1.8-0.3-2.6
	c0.4-0.4,0.9-0.7,1.5-0.7c0.4,0,0.9,0.2,1.2,0.4c4.5,4.4,10.6,6.8,17,6.6c7.5,0,12.7-4.3,12.7-10.1v-0.1c0-5.4-2.8-8.5-14.2-10.9
	c-12.1-2.5-17-6.6-17-14.4v-0.1c0-7.6,6.8-13.4,16.2-13.4c5.8-0.2,11.5,1.7,16,5.3c0.5,0.4,0.8,0.9,0.8,1.5c0,1-0.8,1.9-1.9,1.9
	c-0.4,0-0.9-0.2-1.2-0.4c-3.9-3.2-8.8-4.9-13.9-4.8c-7.4,0-12.3,4.3-12.3,9.6v0.1c0,5.4,2.7,8.7,14.7,11.2
	c11.6,2.4,16.5,6.6,16.5,14.1v0.1c0,8.2-7,13.9-16.7,13.9C309.3,66.8,303.4,64.4,297.7,59.6L297.7,59.6z M407,44.8V16.6
	c0-1,0.8-1.9,1.9-1.9c1,0,1.9,0.8,1.9,1.9c0,0,0,0,0,0v27.9c0,12,6.4,19,17,19c10.2,0,16.7-6.3,16.7-18.6V16.6c0-1,0.8-1.9,1.9-1.9
	c1,0,1.9,0.8,1.9,1.9c0,0,0,0,0,0v27.8c0,14.7-8.4,22.5-20.6,22.5C415.5,66.9,407,59.1,407,44.8L407,44.8z M461.4,40.7v-0.1
	c0-14.5,10.6-26.4,25.1-26.4c8.3,0,13.6,2.9,18.5,7.2c0.4,0.4,0.7,0.9,0.7,1.5c0,1-0.9,1.9-1.9,1.9c-0.5,0-0.9-0.2-1.3-0.5
	c-4.2-3.9-9-6.6-16-6.6c-12.1,0-21.2,10-21.2,22.9v0.1c0,12.9,9.3,23,21.3,23c6.8,0,11.6-2.5,16.4-7.1c0.3-0.4,0.8-0.6,1.3-0.6
	c1,0,1.8,0.8,1.8,1.8c0,0.5-0.2,1-0.6,1.3c-5.1,4.8-10.6,8-19,8C472,66.9,461.4,55.3,461.4,40.7L461.4,40.7z M521.6,64.2V16.9
	c0-1,0.8-1.9,1.9-1.9h32.5c1,0.1,1.7,0.9,1.6,1.9c-0.1,0.9-0.8,1.6-1.6,1.6h-30.6v20.1h27.4c1,0,1.7,0.8,1.7,1.8
	c0,0.9-0.8,1.7-1.7,1.7h-27.4v20.5h31c1,0.1,1.7,0.9,1.6,1.9c-0.1,0.9-0.8,1.6-1.6,1.6h-32.8C522.4,66,521.6,65.2,521.6,64.2
	L521.6,64.2z M386.1,51.8l5.9,13.1c0.3,0.8,1,1.4,1.9,1.5c1,0,1.8-0.8,1.8-1.8c0-0.4-0.1-0.8-0.3-1.2L374,16.3
	c-0.4-1.1-1.4-1.8-2.5-1.8h-0.1c-1.1,0-2.2,0.7-2.5,1.8l-21.5,47.3c-0.2,0.4-0.3,0.8-0.3,1.2c0,0.9,0.8,1.6,1.7,1.6
	c0.8,0,1.6-0.6,1.8-1.4l5.9-13.2l14.9-33L386.1,51.8z"/>
</svg>
