<?xml version="1.0" encoding="utf-8"?>
<!-- Generator: Adobe Illustrator 18.1.1, SVG Export Plug-In . SVG Version: 6.00 Build 0)  -->
<!DOCTYPE svg PUBLIC "-//W3C//DTD SVG 1.1//EN" "http://www.w3.org/Graphics/SVG/1.1/DTD/svg11.dtd">
<svg version="1.1" id="Layer_1" xmlns="http://www.w3.org/2000/svg" xmlns:xlink="http://www.w3.org/1999/xlink" x="0px" y="0px"
	 width="80px" height="80px" viewBox="166.5 0 80 80" enable-background="new 166.5 0 80 80" xml:space="preserve">
<g id="PLAY_BTN">
	<circle fill="#008FC8" cx="206.5" cy="40" r="40"/>
</g>
<g id="Layer_2">
	<path id="play_icon_white.svg" fill="#FFFFFF" d="M199,57c-1.9,0-3.3-1.5-3.3-3.9V29.6c0-2.3,1.3-3.9,3.3-3.9
		c0.8,0,1.6,0.3,2.4,0.7L220,38.2c1.3,0.6,2.1,1.8,2.2,3.2c0,1.3-0.8,2.4-2.2,3.2l-18.6,11.8C200.7,56.8,199.8,57,199,57z M199,27.6
		c-1.3,0-1.4,1.4-1.4,2v23.5c0,0.6,0.1,2,1.4,2c0.5,0,1-0.2,1.4-0.4L219,43c0.8-0.5,1.3-1,1.3-1.6c-0.1-0.7-0.6-1.3-1.3-1.5
		L200.4,28C200,27.8,199.5,27.7,199,27.6z"/>
</g>
</svg>
