<?xml version="1.0" encoding="utf-8"?>
<!-- Generator: Adobe Illustrator 18.1.1, SVG Export Plug-In . SVG Version: 6.00 Build 0)  -->
<!DOCTYPE svg PUBLIC "-//W3C//DTD SVG 1.1//EN" "http://www.w3.org/Graphics/SVG/1.1/DTD/svg11.dtd">
<svg version="1.1" id="Layer_1" xmlns="http://www.w3.org/2000/svg" xmlns:xlink="http://www.w3.org/1999/xlink" x="0px" y="0px"
	 width="32px" height="24.5px" viewBox="-190 28.5 32 24.5" enable-background="new -190 28.5 32 24.5" xml:space="preserve">
<path id="_" fill="#FFFFFF" d="M-159.7,42c-0.9-1.1-2.2-1.7-3.6-1.8c0.2-1.4,0.7-2.7,1.6-3.8c0.9-1.1,2.1-2,3.4-2.6l-3.2-5.4
	c-1.1,0.4-2.2,0.9-3.3,1.6c-1.4,0.8-2.6,1.8-3.6,2.9c-1.3,1.4-2.3,2.9-3,4.7c-0.9,2.2-1.3,4.5-1.2,6.8c-0.1,2.3,0.6,4.5,2.1,6.2
	c1.5,1.6,3.6,2.5,5.8,2.3c1.8,0.1,3.5-0.6,4.9-1.8c1.3-1.2,2-2.9,2-4.7C-157.9,44.9-158.5,43.2-159.7,42z M-177,42
	c-0.9-1.1-2.2-1.7-3.6-1.8c0.2-1.4,0.7-2.7,1.6-3.8c0.9-1.1,2.1-2,3.4-2.6l-3.2-5.4c-1.1,0.4-2.2,0.9-3.3,1.6
	c-1.4,0.8-2.6,1.8-3.6,2.9c-1.3,1.4-2.3,2.9-3,4.7c-0.9,2.2-1.3,4.5-1.2,6.8c-0.1,2.3,0.6,4.5,2.1,6.2c1.5,1.6,3.6,2.5,5.8,2.3
	c1.8,0.1,3.5-0.6,4.9-1.8c1.3-1.2,2-2.9,2-4.7C-175.2,44.9-175.8,43.2-177,42z"/>
</svg>
