<?xml version="1.0" encoding="utf-8"?>
<!-- Generator: Adobe Illustrator 18.1.1, SVG Export Plug-In . SVG Version: 6.00 Build 0)  -->
<!DOCTYPE svg PUBLIC "-//W3C//DTD SVG 1.1//EN" "http://www.w3.org/Graphics/SVG/1.1/DTD/svg11.dtd">
<svg version="1.1" id="Layer_1" xmlns="http://www.w3.org/2000/svg" xmlns:xlink="http://www.w3.org/1999/xlink" x="0px" y="0px"
	 width="23.4px" height="23px" viewBox="-193.4 29 23.4 23" enable-background="new -193.4 29 23.4 23" xml:space="preserve">
<path id="search_icon_white.svg" fill="#FFFFFF" d="M-184.9,46.6c-4.9-0.2-8.7-4.2-8.5-9.1s4.2-8.7,9.1-8.5c4.7,0.2,8.5,4,8.5,8.8
	C-175.9,42.7-180,46.7-184.9,46.6z M-184.9,30.4c-4.1,0.1-7.3,3.5-7.1,7.6c0.1,4.1,3.5,7.3,7.6,7.1c4-0.1,7.1-3.4,7.1-7.4
	C-177.4,33.7-180.8,30.4-184.9,30.4z M-172.2,52c-0.6,0-1.2-0.2-1.6-0.6l-6-5.8c-0.5-0.4-0.6-1-0.4-1.6c0.2-0.4,0.4-0.8,0.8-1.1
	c0.4-0.5,1-0.8,1.6-0.9c0.4,0,0.8,0.2,1.1,0.5l6,5.8c0.8,0.8,0.9,2.1,0.1,3c0,0,0,0-0.1,0.1C-171.1,51.8-171.6,52-172.2,52z
	 M-178.8,44.5C-178.8,44.5-178.8,44.5-178.8,44.5l6.1,5.9c0.3,0.3,0.8,0.3,1.1,0c0.3-0.3,0.3-0.7,0-1c0,0,0,0,0,0l-6-5.8
	c0,0-0.1-0.1-0.1-0.1c-0.2,0.1-0.4,0.2-0.6,0.4C-178.6,44-178.7,44.2-178.8,44.5L-178.8,44.5L-178.8,44.5z"/>
</svg>
