<?xml version="1.0" encoding="utf-8"?>
<!-- Generator: Adobe Illustrator 18.1.1, SVG Export Plug-In . SVG Version: 6.00 Build 0)  -->
<!DOCTYPE svg PUBLIC "-//W3C//DTD SVG 1.1//EN" "http://www.w3.org/Graphics/SVG/1.1/DTD/svg11.dtd">
<svg version="1.1" id="Layer_1" xmlns="http://www.w3.org/2000/svg" xmlns:xlink="http://www.w3.org/1999/xlink" x="0px" y="0px"
	 width="25.4px" height="26px" viewBox="-194.4 28 25.4 26" enable-background="new -194.4 28 25.4 26" xml:space="preserve">
<path id="share_icon_white.svg" fill="#FFFFFF" d="M-174.8,38.3c-2.8,0.1-5.2-2.1-5.3-5s2.1-5.2,5-5.3s5.2,2.1,5.3,5
	c0,0.1,0,0.1,0,0.2C-169.8,36-172,38.3-174.8,38.3z M-174.8,29.6c-1.9-0.1-3.6,1.5-3.6,3.4c-0.1,1.9,1.5,3.6,3.4,3.6
	s3.6-1.5,3.6-3.4c0,0,0-0.1,0-0.1C-171.4,31.2-172.9,29.7-174.8,29.6C-174.8,29.6-174.8,29.6-174.8,29.6z M-188.4,45.9
	c-3.2,0.1-5.9-2.4-6-5.6c-0.1-3.2,2.4-5.9,5.6-6c3.2-0.1,5.9,2.4,6,5.6c0,0.1,0,0.1,0,0.2C-182.8,43.3-185.3,45.9-188.4,45.9z
	 M-188.4,36c-2.3-0.1-4.2,1.7-4.3,4c-0.1,2.3,1.7,4.2,4,4.3s4.2-1.7,4.3-4c0,0,0-0.1,0-0.1C-184.4,37.9-186.2,36.1-188.4,36z
	 M-175.2,54c-3.6,0.1-6.5-2.7-6.6-6.2s2.7-6.5,6.2-6.6c3.6-0.1,6.5,2.7,6.6,6.2c0,0.1,0,0.1,0,0.2C-168.9,51.1-171.7,53.9-175.2,54z
	 M-175.2,42.8c-2.6-0.1-4.9,2-4.9,4.6c-0.1,2.6,2,4.9,4.6,4.9s4.9-2,4.9-4.6c0,0,0-0.1,0-0.1C-170.6,44.9-172.6,42.8-175.2,42.8z
	 M-184.4,38.9l-0.6-1.5l6.6-2.9l0.6,1.5L-184.4,38.9z M-180.7,46.2L-185,44l0.7-1.5l4.4,2.2L-180.7,46.2z"/>
</svg>
