<?xml version="1.0" encoding="utf-8"?>
<!-- Generator: Adobe Illustrator 18.1.1, SVG Export Plug-In . SVG Version: 6.00 Build 0)  -->
<!DOCTYPE svg PUBLIC "-//W3C//DTD SVG 1.1//EN" "http://www.w3.org/Graphics/SVG/1.1/DTD/svg11.dtd">
<svg version="1.1" id="Layer_1" xmlns="http://www.w3.org/2000/svg" xmlns:xlink="http://www.w3.org/1999/xlink" x="0px" y="0px"
	 width="25px" height="25px" viewBox="-194 28 25 25" enable-background="new -194 28 25 25" xml:space="preserve">
<path id="tag_icon_white.svg" fill="#FFFFFF" d="M-183.1,53c-0.9-0.1-1.7-0.6-2.3-1.3l-7.3-7.4c-1.7-1.7-1.7-2.8,0-4.5l11.6-11.6
	c0.2-0.2,0.4-0.2,0.6-0.2l9.8,1c0,0,0.1,0,0.1,0c0.3,0.1,0.6,0.4,0.6,0.7l1,9.8c0,0.2-0.1,0.5-0.2,0.6l-11.6,11.6
	C-181.4,52.4-182.2,52.9-183.1,53z M-180.3,29.6l-11.3,11.3c-1.1,1.1-1.1,1.2,0,2.4l7.3,7.4c0.3,0.4,0.7,0.7,1.2,0.9
	c0.5-0.2,0.9-0.5,1.2-0.9l11.3-11.3l-0.9-8.9L-180.3,29.6z M-175.9,38c-1.7,0-3.2-1.4-3.1-3.2s1.4-3.2,3.2-3.1
	c1.7,0,3.1,1.4,3.1,3.2C-172.8,36.6-174.2,38-175.9,38C-175.9,38-175.9,38-175.9,38L-175.9,38z M-175.9,33.2c-0.9,0-1.6,0.7-1.6,1.6
	c0,0.9,0.7,1.6,1.6,1.6c0.9,0,1.6-0.7,1.6-1.6C-174.3,34-175,33.2-175.9,33.2C-175.9,33.2-175.9,33.2-175.9,33.2L-175.9,33.2z"/>
</svg>
