<?xml version="1.0" encoding="utf-8"?>
<!-- Generator: Adobe Illustrator 18.1.1, SVG Export Plug-In . SVG Version: 6.00 Build 0)  -->
<!DOCTYPE svg PUBLIC "-//W3C//DTD SVG 1.1//EN" "http://www.w3.org/Graphics/SVG/1.1/DTD/svg11.dtd">
<svg version="1.1" id="Layer_1" xmlns="http://www.w3.org/2000/svg" xmlns:xlink="http://www.w3.org/1999/xlink" x="0px" y="0px"
	 width="37px" height="31px" viewBox="-187 26 37 31" enable-background="new -187 26 37 31" xml:space="preserve">
<path id="twitter.svg" fill="#FFFFFF" d="M-151,26.6c-1.5,0.9-3.1,1.6-4.8,1.9c-1.4-1.6-3.4-2.5-5.5-2.5c-4.3,0.1-7.7,3.6-7.6,7.8
	c0,0,0,0,0,0c0,0.6,0.1,1.2,0.2,1.8c-6.2-0.3-11.9-3.3-15.7-8.2c-0.7,1.2-1,2.6-1,3.9c0,2.6,1.3,5,3.4,6.5c-1.2,0-2.4-0.4-3.4-1V37
	c0,3.7,2.5,6.9,6.1,7.7c-0.7,0.2-1.3,0.3-2,0.3c-0.5,0-1,0-1.4-0.1c0.9,3.2,3.8,5.3,7.1,5.4c-2.7,2.2-6,3.4-9.4,3.4
	c-0.6,0-1.2,0-1.8-0.1c3.5,2.3,7.5,3.5,11.6,3.5c14,0,21.6-11.9,21.6-22.3c0-0.3,0-0.7,0-1c1.5-1.1,2.8-2.5,3.8-4
	c-1.4,0.6-2.9,1-4.4,1.2C-152.7,29.9-151.5,28.3-151,26.6z"/>
</svg>
