<?xml version="1.0" encoding="utf-8"?>
<!-- Generator: Adobe Illustrator 18.1.1, SVG Export Plug-In . SVG Version: 6.00 Build 0)  -->
<!DOCTYPE svg PUBLIC "-//W3C//DTD SVG 1.1//EN" "http://www.w3.org/Graphics/SVG/1.1/DTD/svg11.dtd">
<svg version="1.1" id="_x30_4-FULL-COLOR" xmlns="http://www.w3.org/2000/svg" xmlns:xlink="http://www.w3.org/1999/xlink" x="0px"
	 y="0px" width="80.1px" height="80.1px" viewBox="166.5 0 80.1 80.1" enable-background="new 166.5 0 80.1 80.1"
	 xml:space="preserve">
<g id="Twitter_6_">
	<circle fill="#24A9E6" cx="206.6" cy="40.1" r="40.1"/>
	<path id="Twitter_2_" fill="#FFFFFF" d="M224.7,23.9c-1.6,0.9-3.3,1.7-5.2,2c-1.5-1.6-3.6-2.6-5.9-2.6c-4.4,0-8.1,3.7-8.1,8.3
		c0,0.6,0.1,1.3,0.2,1.9c-6.7-0.3-12.6-3.7-16.7-8.6c-0.7,1.3-1.1,2.6-1.1,4.2c0,2.8,1.5,5.4,3.6,7c-1.4,0-2.5-0.4-3.7-1.1v0.1
		c0,4,2.7,7.4,6.5,8.1c-0.6,0.2-1.4,0.3-2.1,0.3c-0.5,0-1.1,0-1.5-0.1c1.1,3.3,4,5.7,7.6,5.8c-2.7,2.2-6.2,3.6-10,3.6
		c-0.6,0-1.3,0-1.9-0.1c3.6,2.3,7.8,3.7,12.4,3.7c14.9,0,23.1-12.6,23.1-23.6c0-0.3,0-0.7,0-1.1c1.6-1.2,3-2.6,4-4.3
		c-1.5,0.6-3.1,1.2-4.6,1.3C222.8,27.5,224,25.9,224.7,23.9z"/>
</g>
</svg>
