<?xml version="1.0" encoding="utf-8"?>
<!-- Generator: Adobe Illustrator 18.1.1, SVG Export Plug-In . SVG Version: 6.00 Build 0)  -->
<!DOCTYPE svg PUBLIC "-//W3C//DTD SVG 1.1//EN" "http://www.w3.org/Graphics/SVG/1.1/DTD/svg11.dtd">
<svg version="1.1" id="Layer_1" xmlns="http://www.w3.org/2000/svg" xmlns:xlink="http://www.w3.org/1999/xlink" x="0px" y="0px"
	 width="46px" height="46px" viewBox="-183 18 46 46" enable-background="new -183 18 46 46" xml:space="preserve">
<path fill="#FFFFFF" d="M-160,64c-12.7,0-23-10.3-23-23c0-12.7,10.3-23,23-23s23,10.3,23,23C-137,53.7-147.3,64-160,64z M-160,19.7
	c-11.7,0-21.3,9.5-21.3,21.3s9.5,21.3,21.3,21.3s21.3-9.5,21.3-21.3S-148.3,19.7-160,19.7z M-151.6,36.3c0,0.2,0,0.4,0,0.6
	c0,6.1-4.5,13.1-12.7,13.1c-2.5,0-4.9-0.8-6.9-2.1c0.4,0,0.7,0.1,1.1,0.1c2.1,0,4-0.7,5.6-2c-2,0-3.6-1.4-4.2-3.2
	c0.3,0.1,0.6,0.1,0.8,0.1c0.4,0,0.8-0.1,1.2-0.2c-2-0.4-3.6-2.3-3.6-4.5v-0.1c0.6,0.3,1.3,0.5,2,0.6c-1.2-0.8-2-2.2-2-3.8
	c0-0.8,0.2-1.6,0.6-2.3c2.2,2.8,5.5,4.6,9.2,4.8c-0.1-0.3-0.1-0.7-0.1-1c0-2.5,2-4.6,4.5-4.6c1.3,0,2.5,0.6,3.3,1.4
	c1-0.2,2-0.6,2.8-1.1c-0.3,1.1-1,2-2,2.5c0.9-0.1,1.8-0.4,2.6-0.7C-150,34.9-150.7,35.7-151.6,36.3z"/>
</svg>
