<?xml version="1.0" encoding="utf-8"?>
<!-- Generator: Adobe Illustrator 18.1.1, SVG Export Plug-In . SVG Version: 6.00 Build 0)  -->
<!DOCTYPE svg PUBLIC "-//W3C//DTD SVG 1.1//EN" "http://www.w3.org/Graphics/SVG/1.1/DTD/svg11.dtd">
<svg version="1.1" id="_x30_4-FULL-COLOR" xmlns="http://www.w3.org/2000/svg" xmlns:xlink="http://www.w3.org/1999/xlink" x="0px"
	 y="0px" width="80.1px" height="80.1px" viewBox="166.5 0 80.1 80.1" enable-background="new 166.5 0 80.1 80.1"
	 xml:space="preserve">
<g id="Vimeo_6_">
	<circle fill="#1CB1E6" cx="206.6" cy="40.1" r="40.1"/>
	<g id="Vimeo_2_">
		<path fill="#FFFFFF" d="M220.1,23.7c-5.4-0.2-9,2.8-11,9c0.9-0.4,1.9-0.6,2.8-0.6c2,0,2.8,1.1,2.6,3.3c-0.1,1.4-0.9,3.3-2.6,5.8
			c-1.6,2.5-2.8,3.8-3.7,3.8c-1.1,0-2-1.9-2.8-5.8c-0.3-1.2-0.8-4-1.6-8.7c-0.7-4.3-2.5-6.3-5.6-6.1c-1.3,0.1-3.2,1.3-5.7,3.5
			c-1.9,1.7-3.7,3.3-5.6,5l1.8,2.3c1.7-1.2,2.7-1.8,3.1-1.8c1.4,0,2.5,2.1,3.7,6.2c1.1,3.8,2.1,7.6,3.2,11.3
			c1.6,4.1,3.5,6.1,5.7,6.1c3.7,0,8.1-3.4,13.4-10.1c5.1-6.4,7.7-11.5,7.9-15.3C225.9,26.4,224,23.8,220.1,23.7z"/>
	</g>
</g>
</svg>
